<svg width="24" height="24" viewBox="0 0 24 24" fill="none" xmlns="http://www.w3.org/2000/svg">
<g clip-path="url(#clip0_1_355)">
<path d="M21.5998 12.2285C21.5998 11.5199 21.5346 10.8392 21.4133 10.1865H11.9961V14.056H17.3854C17.1523 15.3054 16.453 16.3683 15.39 17.077V19.5851H18.6255C20.5089 17.8415 21.5998 15.2774 21.5998 12.2285Z" fill="#4285F4"/>
<path d="M12.0047 22C14.7086 22 16.965 21.1049 18.6247 19.5757L15.3893 17.0676C14.4942 17.6736 13.3473 18.028 12.0047 18.028C9.40327 18.028 7.19348 16.2657 6.41026 13.9067H3.07227V16.4988C4.71329 19.7622 8.08858 22 12.0047 22Z" fill="#34A853"/>
<path d="M6.40093 13.9065C6.20513 13.3098 6.08392 12.6664 6.08392 12.0044C6.08392 11.3424 6.1958 10.7084 6.40093 10.1023V7.51025H3.06294C2.38228 8.86224 2 10.3914 2 12.0044C2 13.6175 2.38228 15.1466 3.06294 16.4986L6.40093 13.9065Z" fill="#FBBC05"/>
<path d="M12.0032 5.98135C13.4671 5.98135 14.7911 6.48485 15.8261 7.47319L18.6979 4.6014C16.9636 2.98834 14.6979 2 12.0032 2C8.09649 2 4.71187 4.23776 3.06152 7.51049L6.39952 10.1026C7.19206 7.73427 9.39253 5.98135 12.0032 5.98135Z" fill="#EA4335"/>
</g>
<defs>
<clipPath id="clip0_1_355">
<rect width="20" height="20" fill="white" transform="translate(2 2)"/>
</clipPath>
</defs>
</svg>
