<svg width="24" height="24" viewBox="0 0 24 24" fill="none" xmlns="http://www.w3.org/2000/svg">
<path d="M12 7C11.45 7 10.9792 6.80417 10.5875 6.4125C10.1958 6.02083 10 5.55 10 5C10 4.45 10.1958 3.97917 10.5875 3.5875C10.9792 3.19583 11.45 3 12 3C12.55 3 13.0208 3.19583 13.4125 3.5875C13.8042 3.97917 14 4.45 14 5C14 5.55 13.8042 6.02083 13.4125 6.4125C13.0208 6.80417 12.55 7 12 7ZM12 21C11.5833 21 11.2292 20.8542 10.9375 20.5625C10.6458 20.2708 10.5 19.9167 10.5 19.5V10.5C10.5 10.0833 10.6458 9.72917 10.9375 9.4375C11.2292 9.14583 11.5833 9 12 9C12.4167 9 12.7708 9.14583 13.0625 9.4375C13.3542 9.72917 13.5 10.0833 13.5 10.5V19.5C13.5 19.9167 13.3542 20.2708 13.0625 20.5625C12.7708 20.8542 12.4167 21 12 21Z" fill="black"/>
</svg>
