<svg width="24" height="24" viewBox="0 0 24 24" fill="none" xmlns="http://www.w3.org/2000/svg">
<path d="M16.2285 2H7.77151C4.58534 2 2 4.58534 2 7.77151V16.2285C2 19.4147 4.58534 22 7.77151 22H16.2285C19.4147 22 22 19.4147 22 16.2285V7.77151C22 4.58534 19.4147 2 16.2285 2ZM20.1611 16.3741C20.1611 18.4952 18.4497 20.2066 16.3286 20.2066H7.67137C5.5503 20.2066 3.83887 18.4952 3.83887 16.3741V7.71689C3.83887 5.59581 5.5503 3.88439 7.67137 3.88439H16.3286C18.4497 3.88439 20.1611 5.59581 20.1611 7.71689V16.3741Z" fill="black"/>
<path d="M12.0053 6.8584C9.13775 6.8584 6.81641 9.17974 6.81641 12.0473C6.81641 14.9148 9.13775 17.2362 12.0053 17.2362C14.8728 17.2362 17.1942 14.9148 17.1942 12.0473C17.1942 9.17974 14.8728 6.8584 12.0053 6.8584ZM12.0053 15.4155C10.1482 15.4155 8.63707 13.9135 8.63707 12.0473C8.63707 10.1811 10.1391 8.67906 12.0053 8.67906C13.8715 8.67906 15.3735 10.1811 15.3735 12.0473C15.3735 13.9135 13.8715 15.4155 12.0053 15.4155Z" fill="black"/>
<path d="M17.367 7.87852C18.0357 7.87852 18.5777 7.33645 18.5777 6.66777C18.5777 5.9991 18.0357 5.45703 17.367 5.45703C16.6983 5.45703 16.1562 5.9991 16.1562 6.66777C16.1562 7.33645 16.6983 7.87852 17.367 7.87852Z" fill="black"/>
</svg>
