<svg width="24" height="24" viewBox="0 0 24 24" fill="none" xmlns="http://www.w3.org/2000/svg">
<path d="M19.9282 5.02845C16.5626 1.73905 10.2968 2.53224 5.91672 6.81312C1.53666 11.094 0.689288 18.396 4.0907 20.5073C6.44185 21.9653 7.63533 19.7841 9.52103 19.1542C11.4783 18.5126 11.5977 21.0089 14.1637 20.9972C15.0946 20.9972 16.7774 20.0057 18.1021 18.7226C22.4703 14.4534 23.2938 8.31785 19.9282 5.02845ZM15.572 12.8787L12.9821 14.3367L10.3923 15.7948C9.99842 16.0164 9.52103 15.7365 9.52103 15.3049V9.46097C9.52103 9.01772 10.0104 8.74943 10.3923 8.97106L12.9821 10.4291L15.572 11.8872C15.9658 12.1088 15.9658 12.6571 15.572 12.8787Z" fill="black"/>
</svg>
