<svg width="24" height="24" viewBox="0 0 24 24" fill="none" xmlns="http://www.w3.org/2000/svg">
<path d="M11.4998 10.4998H10.7248C10.5248 10.4998 10.3541 10.4288 10.2128 10.2868C10.0708 10.1455 9.9998 9.96647 9.9998 9.7498C9.9998 9.53314 10.0708 9.3538 10.2128 9.2118C10.3541 9.07047 10.5331 8.9998 10.7498 8.9998H12.2498C12.4665 8.9998 12.6458 9.07047 12.7878 9.2118C12.9291 9.3538 12.9998 9.53314 12.9998 9.7498V14.2748C12.9998 14.4748 12.9291 14.6455 12.7878 14.7868C12.6458 14.9288 12.4665 14.9998 12.2498 14.9998C12.0331 14.9998 11.8541 14.9288 11.7128 14.7868C11.5708 14.6455 11.4998 14.4665 11.4998 14.2498V10.4998ZM16.9998 16.9998V13.9998C16.9998 13.7165 17.0958 13.4788 17.2878 13.2868C17.4791 13.0955 17.7165 12.9998 17.9998 12.9998C18.2831 12.9998 18.5205 13.0915 18.7118 13.2748C18.9038 13.4581 18.9998 13.6915 18.9998 13.9748V17.9998C18.9998 18.2831 18.9038 18.5205 18.7118 18.7118C18.5205 18.9038 18.2831 18.9998 17.9998 18.9998H6.8498L7.6748 19.8248C7.8748 20.0248 7.97914 20.2665 7.9878 20.5498C7.9958 20.8331 7.8998 21.0748 7.6998 21.2748C7.4998 21.4748 7.26247 21.5748 6.9878 21.5748C6.71247 21.5748 6.48314 21.4831 6.2998 21.2998L3.6998 18.6998C3.51647 18.5165 3.4248 18.2831 3.4248 17.9998C3.4248 17.7165 3.51647 17.4831 3.6998 17.2998L6.2748 14.7248C6.4748 14.5248 6.71247 14.4248 6.9878 14.4248C7.26247 14.4248 7.4998 14.5248 7.6998 14.7248C7.8998 14.9248 7.9998 15.1625 7.9998 15.4378C7.9998 15.7125 7.8998 15.9498 7.6998 16.1498L6.8498 16.9998H16.9998ZM6.9998 6.9998V9.9998C6.9998 10.2831 6.90414 10.5205 6.7128 10.7118C6.5208 10.9038 6.28314 10.9998 5.9998 10.9998C5.71647 10.9998 5.4788 10.9081 5.2868 10.7248C5.09547 10.5415 4.9998 10.3081 4.9998 10.0248V5.9998C4.9998 5.71647 5.09547 5.4788 5.2868 5.2868C5.4788 5.09547 5.71647 4.9998 5.9998 4.9998H17.1498L16.3248 4.1748C16.1248 3.9748 16.0208 3.73314 16.0128 3.4498C16.0041 3.16647 16.0998 2.9248 16.2998 2.7248C16.4998 2.5248 16.7375 2.4248 17.0128 2.4248C17.2875 2.4248 17.5165 2.51647 17.6998 2.6998L20.2998 5.2998C20.4831 5.48314 20.5748 5.71647 20.5748 5.9998C20.5748 6.28314 20.4831 6.51647 20.2998 6.6998L17.7248 9.2748C17.5248 9.4748 17.2875 9.5748 17.0128 9.5748C16.7375 9.5748 16.4998 9.4748 16.2998 9.2748C16.0998 9.0748 15.9998 8.83714 15.9998 8.5618C15.9998 8.28714 16.0998 8.0498 16.2998 7.8498L17.1498 6.9998H6.9998Z" fill="black"/>
</svg>
