<svg width="24" height="24" viewBox="0 0 24 24" fill="none" xmlns="http://www.w3.org/2000/svg">
<path d="M9.1748 10.575L4.6998 6.1C4.51647 5.91667 4.4248 5.68333 4.4248 5.4C4.4248 5.11667 4.51647 4.88333 4.6998 4.7C4.88314 4.51667 5.11647 4.425 5.3998 4.425C5.68314 4.425 5.91647 4.51667 6.0998 4.7L10.5748 9.175L9.1748 10.575ZM14.9998 20C14.7165 20 14.4791 19.904 14.2878 19.712C14.0958 19.5207 13.9998 19.2833 13.9998 19C13.9998 18.7167 14.0958 18.4793 14.2878 18.288C14.4791 18.096 14.7165 18 14.9998 18H16.5998L13.3998 14.8L14.8248 13.375L17.9998 16.55V15C17.9998 14.7167 18.0958 14.479 18.2878 14.287C18.4791 14.0957 18.7165 14 18.9998 14C19.2831 14 19.5205 14.0957 19.7118 14.287C19.9038 14.479 19.9998 14.7167 19.9998 15V19C19.9998 19.2833 19.9038 19.5207 19.7118 19.712C19.5205 19.904 19.2831 20 18.9998 20H14.9998ZM4.6998 19.3C4.51647 19.1167 4.4248 18.8833 4.4248 18.6C4.4248 18.3167 4.51647 18.0833 4.6998 17.9L16.5998 6H14.9998C14.7165 6 14.4791 5.90433 14.2878 5.713C14.0958 5.521 13.9998 5.28333 13.9998 5C13.9998 4.71667 14.0958 4.479 14.2878 4.287C14.4791 4.09567 14.7165 4 14.9998 4H18.9998C19.2831 4 19.5205 4.09567 19.7118 4.287C19.9038 4.479 19.9998 4.71667 19.9998 5V9C19.9998 9.28333 19.9038 9.52067 19.7118 9.712C19.5205 9.904 19.2831 10 18.9998 10C18.7165 10 18.4791 9.904 18.2878 9.712C18.0958 9.52067 17.9998 9.28333 17.9998 9V7.4L6.0998 19.3C5.91647 19.4833 5.68314 19.575 5.3998 19.575C5.11647 19.575 4.88314 19.4833 4.6998 19.3Z" fill="black"/>
</svg>
